<svg width="232" height="255" viewBox="0 0 232 255" fill="none" xmlns="http://www.w3.org/2000/svg">
<g clip-path="url(#clip0_16_347)">
<path fill-rule="evenodd" clip-rule="evenodd" d="M172.982 77L112.991 32L53 77H53.2741V173H173V77H172.982Z" fill="#C1C1C1" fill-opacity="0.5"/>
<mask id="path-2-inside-1_16_347" fill="white">
<path fill-rule="evenodd" clip-rule="evenodd" d="M173.287 69L110.5 24L47.7134 69H48.0002V165H173.305V69H173.287ZM133 104C130.239 104 128 106.239 128 109V158H159V109C159 106.239 156.762 104 154 104H133ZM65.1792 102.242C65.1792 96.7193 69.6563 92.2421 75.1792 92.2421H90.5476C96.0704 92.2421 100.548 96.7193 100.548 102.242V117.611C100.548 123.133 96.0704 127.611 90.5476 127.611H75.1792C69.6563 127.611 65.1792 123.133 65.1792 117.611V102.242Z"/>
</mask>
<path fill-rule="evenodd" clip-rule="evenodd" d="M173.287 69L110.5 24L47.7134 69H48.0002V165H173.305V69H173.287ZM133 104C130.239 104 128 106.239 128 109V158H159V109C159 106.239 156.762 104 154 104H133ZM65.1792 102.242C65.1792 96.7193 69.6563 92.2421 75.1792 92.2421H90.5476C96.0704 92.2421 100.548 96.7193 100.548 102.242V117.611C100.548 123.133 96.0704 127.611 90.5476 127.611H75.1792C69.6563 127.611 65.1792 123.133 65.1792 117.611V102.242Z" fill="url(#paint0_linear_16_347)"/>
<path d="M110.5 24L112.83 20.7488C111.437 19.7504 109.563 19.7504 108.17 20.7488L110.5 24ZM173.287 69L170.957 72.2512C171.636 72.7381 172.451 73 173.287 73V69ZM47.7134 69L45.3832 65.7488C43.9708 66.7611 43.3736 68.5694 43.9052 70.2238C44.4368 71.8781 45.9757 73 47.7134 73V69ZM48.0002 69H52.0002C52.0002 66.7909 50.2094 65 48.0002 65V69ZM48.0002 165H44.0002C44.0002 167.209 45.7911 169 48.0002 169V165ZM173.305 165V169C175.515 169 177.305 167.209 177.305 165H173.305ZM173.305 69H177.305C177.305 66.7909 175.515 65 173.305 65V69ZM128 158H124C124 160.209 125.791 162 128 162V158ZM159 158V162C161.209 162 163 160.209 163 158H159ZM108.17 27.2512L170.957 72.2512L175.617 65.7488L112.83 20.7488L108.17 27.2512ZM50.0435 72.2512L112.83 27.2512L108.17 20.7488L45.3832 65.7488L50.0435 72.2512ZM48.0002 65H47.7134V73H48.0002V65ZM52.0002 165V69H44.0002V165H52.0002ZM173.305 161H48.0002V169H173.305V161ZM169.305 69V165H177.305V69H169.305ZM173.287 73H173.305V65H173.287V73ZM132 109C132 108.448 132.448 108 133 108V100C128.03 100 124 104.029 124 109H132ZM132 158V109H124V158H132ZM159 154H128V162H159V154ZM155 109V158H163V109H155ZM154 108C154.553 108 155 108.448 155 109H163C163 104.029 158.971 100 154 100V108ZM133 108H154V100H133V108ZM75.1792 88.2421C67.4472 88.2421 61.1792 94.5101 61.1792 102.242H69.1792C69.1792 98.9284 71.8655 96.2421 75.1792 96.2421V88.2421ZM90.5476 88.2421H75.1792V96.2421H90.5476V88.2421ZM104.548 102.242C104.548 94.5101 98.2796 88.2421 90.5476 88.2421V96.2421C93.8613 96.2421 96.5476 98.9284 96.5476 102.242H104.548ZM104.548 117.611V102.242H96.5476V117.611H104.548ZM90.5476 131.611C98.2796 131.611 104.548 125.343 104.548 117.611H96.5476C96.5476 120.924 93.8613 123.611 90.5476 123.611V131.611ZM75.1792 131.611H90.5476V123.611H75.1792V131.611ZM61.1792 117.611C61.1792 125.343 67.4472 131.611 75.1792 131.611V123.611C71.8655 123.611 69.1792 120.924 69.1792 117.611H61.1792ZM61.1792 102.242V117.611H69.1792V102.242H61.1792Z" fill="url(#paint1_linear_16_347)" mask="url(#path-2-inside-1_16_347)"/>
<path d="M207.745 216.621L217.874 234.891C220.528 235.495 225.56 237.05 224.457 238.436C223.077 240.169 219.698 246.359 221.014 247.068C222.331 247.777 212.723 248.865 209.824 248.614C206.925 248.364 206.38 242.1 207.874 242.03C209.069 241.975 205.983 235.187 204.291 231.8C200.991 226.818 187.717 215.01 161.021 207.624C127.652 198.393 114.246 194.523 88.664 203.028C63.0816 211.533 47.9807 221.605 40.8798 228.995C38.728 231.235 31.6118 236.383 20.361 239.062C6.29746 242.411 3.47378 233.172 3.35971 231.509C3.33722 231.181 3.73145 230.941 4.38921 230.769C6.22099 229.326 8.72027 226.706 9.05545 223.799C9.56142 219.411 14.0024 193.404 25.7361 182.975C37.4698 172.546 54.8361 156.85 74.1149 152.231C93.3936 147.613 122.42 145.623 150.523 152.018C178.625 158.414 210.401 189.798 207.745 216.621Z" fill="#DFC900"/>
<path d="M195.211 221.878L211.421 239.042C213.801 239.584 220.384 241.805 224.673 241.347C225.512 240.426 226.057 239.693 226.137 239.307C225.781 238.937 225.505 238.747 226.054 239.042C226.138 239.087 226.163 239.178 226.137 239.307C226.634 239.826 227.289 240.696 226.054 241.076C225.63 241.207 225.167 241.295 224.673 241.347C221.388 244.954 213.582 251.442 211.421 251.255C208.522 251.004 207.977 244.74 209.471 244.671C210.666 244.615 207.58 237.827 205.888 234.44C202.588 229.459 189.314 217.65 162.618 210.265C129.249 201.033 115.843 197.163 90.2609 205.668C64.6784 214.174 49.5775 224.246 42.4766 231.636C40.3249 233.875 37.6212 236.363 26.3704 239.042C12.3069 242.391 22.0719 238.306 21.9578 236.643C23.6877 235.536 27.5622 232.174 27.967 228.664C28.4729 224.276 62.2067 203.765 71.8733 197.929C89.063 187.551 92.9089 190.972 112.188 186.354C131.466 181.736 137.217 181.658 162.618 193.385C189.224 205.668 187.627 205.668 195.211 221.878Z" fill="#FFF27B"/>
<path fill-rule="evenodd" clip-rule="evenodd" d="M220.786 238.989C219.766 238.642 218.668 238.346 217.805 238.15L216.934 237.951L216.5 237.169L206.372 218.899L206.069 218.353L206.131 217.732C207.377 205.14 200.523 191.133 189.577 179.328C178.666 167.56 164.034 158.368 150.454 155.277C122.69 148.958 93.978 150.928 74.9562 155.485C56.5561 159.893 39.8154 174.776 28.0073 185.275L28.0072 185.275L27.4402 185.779C22.0041 190.61 18.0909 199.264 15.4678 207.564C12.87 215.784 11.6576 223.256 11.4177 225.337C11.2301 226.964 10.5475 228.442 9.71619 229.694C11.2629 229.697 12.7969 229.763 13.9449 229.84L14.287 229.863L14.6019 229.998L22.6785 233.474L22.8815 233.561C23.2814 233.188 23.6498 232.778 24.1435 232.228C24.3727 231.972 24.6289 231.687 24.9279 231.361C25.8788 230.325 27.22 228.929 29.4126 226.908C33.7939 222.871 41.5744 216.337 56.4345 205.181C56.6553 205.015 56.9687 205.06 57.1345 205.281C57.3003 205.501 57.2557 205.815 57.0348 205.981C42.1869 217.128 34.4364 223.639 30.0902 227.644C27.919 229.645 26.5975 231.02 25.6647 232.037C25.3918 232.335 25.1484 232.606 24.9241 232.856L24.9237 232.856L24.9231 232.857C24.5342 233.29 24.203 233.659 23.8756 233.989L24.2074 234.132L23.838 235.755L23.4228 237.579C32.4985 234.86 38.1431 230.656 39.8131 228.918C47.2131 221.217 62.6392 211.006 88.4085 202.439C101.423 198.112 111.453 196.903 122.495 197.993C133.171 199.047 144.757 202.253 160.776 206.686L160.776 206.686L161.93 207.005C188.909 214.469 202.679 226.487 206.334 232.003L206.401 232.105L206.455 232.214C207.315 233.935 208.539 236.538 209.403 238.743C209.827 239.826 210.205 240.912 210.388 241.779C210.472 242.175 210.565 242.737 210.49 243.29C210.468 243.453 210.423 243.681 210.321 243.932C214.049 240.474 217.836 239.194 220.786 238.989ZM210.615 247.947C211.952 248.013 214.695 247.833 217.124 247.525C217.876 247.43 218.554 247.328 219.114 247.226C219.138 246.983 219.179 246.753 219.223 246.548C219.423 245.629 219.836 244.579 220.283 243.608C220.531 243.07 220.807 242.517 221.094 241.978C218.456 242.134 214.508 243.43 210.615 247.947ZM220.441 250.137C220.44 250.136 220.426 250.129 220.404 250.117C220.417 250.124 220.429 250.13 220.441 250.137L220.441 250.137ZM19.5684 236.49L19.0688 238.685C13.2731 239.806 10.0651 238.445 8.29742 236.948C7.31089 236.112 6.66809 235.148 6.26671 234.308C6.19358 234.155 6.12911 234.007 6.07253 233.867C6.48617 233.813 6.98867 233.769 7.56719 233.74C9.43273 233.644 11.6981 233.71 13.3388 233.81L19.5684 236.49ZM5.56131 228.562C4.99005 229.229 4.37089 229.812 3.81094 230.277C3.50607 230.382 3.18134 230.525 2.88347 230.726C2.40844 231.047 1.65916 231.778 1.73984 232.954C1.82923 234.258 2.77312 237.51 5.71207 240C8.78172 242.6 13.6984 244.103 21.1997 242.316C32.7785 239.559 40.2493 234.237 42.6974 231.689C49.4991 224.611 64.2749 214.678 89.6705 206.234C102.239 202.056 111.703 200.947 122.102 201.974C132.43 202.993 143.718 206.116 160.002 210.622L160.864 210.86C187.084 218.115 199.868 229.599 202.934 234.115C203.762 235.78 204.893 238.199 205.679 240.202C205.994 241.009 206.231 241.689 206.373 242.2C206.284 242.299 206.205 242.401 206.136 242.5C205.797 242.994 205.635 243.545 205.551 243.99C205.379 244.9 205.423 245.961 205.614 246.944C205.806 247.931 206.181 249.025 206.822 249.943C207.47 250.871 208.522 251.786 210.027 251.916C211.705 252.06 215.015 251.824 217.627 251.493C218.947 251.326 220.219 251.119 221.108 250.888C221.47 250.794 222.068 250.626 222.533 250.309L222.535 250.307C222.675 250.212 223.543 249.62 223.512 248.46C223.499 247.984 223.343 247.612 223.148 247.33C223.263 246.837 223.528 246.124 223.917 245.28C224.728 243.518 225.839 241.69 226.397 240.99C226.858 240.411 227.107 239.638 226.932 238.806C226.78 238.085 226.359 237.572 226.041 237.261C225.411 236.645 224.522 236.184 223.754 235.847C222.453 235.276 220.865 234.793 219.573 234.462L210.167 217.496C211.292 203.452 203.648 188.62 192.511 176.608C181.173 164.38 165.864 154.682 151.342 151.377C122.9 144.904 93.5601 146.915 74.0244 151.595C54.6312 156.241 37.2512 171.699 25.6145 182.049L25.6144 182.05L24.7828 182.789C18.4853 188.386 14.3111 197.95 11.6538 206.359C8.97122 214.846 7.7101 222.571 7.44405 224.879C7.30694 226.068 6.59861 227.352 5.56131 228.562ZM202.314 217.125C202.423 217.378 202.305 217.672 202.051 217.781C201.298 218.104 200.06 218.538 198.773 218.797C197.512 219.051 196.093 219.163 195.045 218.734C194.789 218.629 194.667 218.337 194.771 218.082C194.876 217.826 195.168 217.704 195.423 217.808C196.178 218.117 197.341 218.066 198.576 217.817C199.784 217.573 200.956 217.163 201.658 216.862C201.911 216.753 202.205 216.871 202.314 217.125ZM189.158 208.082C188.997 208.306 188.684 208.357 188.46 208.196C179.481 201.744 163.077 193.277 143.102 188.897C123.132 184.519 99.6208 184.232 76.3979 194.097C76.1437 194.205 75.8501 194.087 75.7422 193.833C75.6342 193.579 75.7527 193.285 76.0069 193.177C99.4674 183.211 123.199 183.51 143.316 187.921C163.428 192.33 179.957 200.855 189.044 207.384C189.268 207.545 189.319 207.858 189.158 208.082Z" fill="url(#paint2_linear_16_347)"/>
<path fill-rule="evenodd" clip-rule="evenodd" d="M30.9213 70.6262C29.3244 68.3734 29.8561 65.2525 32.1089 63.6556L64.3578 40.7956C64.1255 40.0721 64 39.3007 64 38.5V28.5C64 24.3579 67.3579 21 71.5 21C75.6421 21 79 24.3579 79 28.5V30.4163L107.913 9.9213C108.81 9.28523 109.845 8.98687 110.866 9.00044C111.888 8.98687 112.923 9.28523 113.82 9.9213L189.624 63.6556C191.877 65.2525 192.409 68.3734 190.812 70.6262C189.215 72.879 186.094 73.4107 183.841 71.8138L110.866 20.085L37.8919 71.8138C35.6391 73.4107 32.5182 72.879 30.9213 70.6262Z" fill="#6AF978"/>
<path d="M32.1089 63.6556L33.2655 65.2872L33.2655 65.2872L32.1089 63.6556ZM30.9213 70.6262L32.5529 69.4696H32.5529L30.9213 70.6262ZM64.3578 40.7956L65.5144 42.4272L66.7102 41.5796L66.262 40.184L64.3578 40.7956ZM79 30.4163H77V34.2855L80.1566 32.0479L79 30.4163ZM107.913 9.9213L109.069 11.5529V11.5529L107.913 9.9213ZM110.866 9.00044L110.84 11.0003L110.866 11.0006L110.893 11.0003L110.866 9.00044ZM113.82 9.9213L112.664 11.5529V11.5529L113.82 9.9213ZM189.624 63.6556L190.781 62.0239L190.781 62.0239L189.624 63.6556ZM190.812 70.6262L192.443 71.7828V71.7828L190.812 70.6262ZM183.841 71.8138L184.998 70.1821L184.998 70.1821L183.841 71.8138ZM110.866 20.085L112.023 18.4533L110.866 17.6335L109.71 18.4533L110.866 20.085ZM37.8919 71.8138L39.0485 73.4454H39.0485L37.8919 71.8138ZM30.9523 62.0239C27.7983 64.2596 27.0539 68.6288 29.2897 71.7828L32.5529 69.4696C31.5948 68.1179 31.9138 66.2454 33.2655 65.2872L30.9523 62.0239ZM63.2012 39.1639L30.9523 62.0239L33.2655 65.2872L65.5144 42.4272L63.2012 39.1639ZM66.262 40.184C66.0924 39.6558 66 39.0906 66 38.5H62C62 39.5107 62.1586 40.4884 62.4536 41.4071L66.262 40.184ZM66 38.5V28.5H62V38.5H66ZM66 28.5C66 25.4624 68.4624 23 71.5 23V19C66.2533 19 62 23.2533 62 28.5H66ZM71.5 23C74.5376 23 77 25.4624 77 28.5H81C81 23.2533 76.7467 19 71.5 19V23ZM77 28.5V30.4163H81V28.5H77ZM106.756 8.28965L77.8434 28.7847L80.1566 32.0479L109.069 11.5529L106.756 8.28965ZM110.893 7.00062C109.462 6.9816 108.01 7.40058 106.756 8.28965L109.069 11.5529C109.61 11.1699 110.228 10.9921 110.84 11.0003L110.893 7.00062ZM114.977 8.28965C113.723 7.40058 112.271 6.9816 110.84 7.00062L110.893 11.0003C111.505 10.9921 112.123 11.1699 112.664 11.5529L114.977 8.28965ZM190.781 62.0239L114.977 8.28965L112.664 11.5529L188.467 65.2872L190.781 62.0239ZM192.443 71.7828C194.679 68.6288 193.935 64.2596 190.781 62.0239L188.467 65.2872C189.819 66.2454 190.138 68.1179 189.18 69.4696L192.443 71.7828ZM182.684 73.4454C185.838 75.6812 190.208 74.9368 192.443 71.7828L189.18 69.4696C188.222 70.8213 186.349 71.1403 184.998 70.1821L182.684 73.4454ZM109.71 21.7166L182.684 73.4454L184.998 70.1821L112.023 18.4533L109.71 21.7166ZM39.0485 73.4454L112.023 21.7166L109.71 18.4533L36.7353 70.1821L39.0485 73.4454ZM29.2897 71.7828C31.5254 74.9368 35.8946 75.6811 39.0485 73.4454L36.7353 70.1821C35.3836 71.1403 33.5111 70.8213 32.5529 69.4696L29.2897 71.7828Z" fill="#41AA00"/>
</g>
<defs>
<linearGradient id="paint0_linear_16_347" x1="111" y1="24" x2="111" y2="149" gradientUnits="userSpaceOnUse">
<stop stop-color="#00FF77"/>
<stop offset="1" stop-color="#128B34"/>
</linearGradient>
<linearGradient id="paint1_linear_16_347" x1="110.509" y1="24" x2="110.509" y2="165" gradientUnits="userSpaceOnUse">
<stop stop-color="#41AA00"/>
<stop offset="1" stop-color="#122D01"/>
</linearGradient>
<linearGradient id="paint2_linear_16_347" x1="116" y1="149.5" x2="116.5" y2="200" gradientUnits="userSpaceOnUse">
<stop stop-color="#004E2D"/>
<stop offset="1" stop-color="#6A6C00"/>
</linearGradient>
<clipPath id="clip0_16_347">
<rect width="232" height="255" fill="white"/>
</clipPath>
</defs>
</svg>
